
        <svg xmlns="http://www.w3.org/2000/svg" xmlns:xlink="http://www.w3.org/1999/xlink" version="1.1" width="3133.3333333333335" 
        height="1780" viewBox="0 0 3133.3333333333335 1780">
			
			<g transform="scale(6.666666666666667) translate(10, 10)">
				<defs id="SvgjsDefs2812"></defs><g id="SvgjsG2813" featureKey="rootContainer" transform="matrix(1,0,0,1,0,0)" fill="#ffffff"><path xmlns="http://www.w3.org/2000/svg" fill-rule="evenodd" d=" M0,0 H450 V247 H0,0 z M2,2 H448 V245 H2,2 z M6,6 H444 V241 H6 z M8,8 H442 V239 H6,8 z "></path></g><g id="SvgjsG2814" featureKey="pxMwYC-0" transform="matrix(1.7621145374449338,0,0,1.7621145374449338,137.3942731277533,-7.433920704845811)" fill="#ffffff"><path xmlns="http://www.w3.org/2000/svg" style="font-size: medium; font-style: normal; font-variant: normal; font-weight: normal; font-stretch: normal; text-indent: 0; text-align: start; text-decoration: none; line-height: normal; letter-spacing: normal; word-spacing: normal; text-transform: none; direction: ltr; block-progression: tb; writing-mode: lr-tb; text-anchor: start; baseline-shift: baseline; opacity: 1; color: ; fill-opacity: 1; stroke-width: 1.99999952000000000; marker: none; visibility: visible; display: inline; overflow: visible; enable-background: accumulate; font-family: Sans; -inkscape-font-specification: Sans" d="M 50 32.59375 L 49.3125 33.28125 L 16.3125 65.28125 L 14.53125 67 L 17 67 L 83 67 L 85.46875 67 L 83.6875 65.28125 L 75 56.875 L 75 45 L 75 44 L 74 44 L 64 44 L 63 44 L 63 45 L 63 45.21875 L 50.6875 33.28125 L 50 32.59375 z M 50 35.375 L 63.3125 48.28125 L 65 49.9375 L 65 47.5625 L 65 46 L 73 46 L 73 57.28125 L 73 57.71875 L 73.3125 58 L 80.53125 65 L 19.46875 65 L 50 35.375 z " fill="#ffffff" stroke="none"></path></g><g id="SvgjsG2815" featureKey="Vx5QiU-0" transform="matrix(2.3635869773545912,0,0,2.3635869773545912,46.36007670856067,120.08022843511286)" fill="#ffffff"><path d="M4.72 11.34 l6.98 0 l0 2.74 l-6.98 0 l0 5.92 l-3.18 0 l0 -14.62 l11.08 0 l0 2.74 l-7.9 0 l0 3.22 z M17.119999999999997 7.369999999999999 q-0.48 0.47 -1.16 0.47 q-0.7 0 -1.19 -0.47 t-0.49 -1.15 q0 -0.66 0.49 -1.13 t1.19 -0.47 q0.68 0 1.16 0.47 t0.48 1.13 q0 0.68 -0.48 1.15 z M14.459999999999999 9.02 l3 0 l0 10.98 l-3 0 l0 -10.98 z M20.439999999999998 4.880000000000001 l3 0 l0 15.12 l-3 0 l0 -15.12 z M34.64 18.9 q-0.38 0.52 -1.31 0.93 t-2.03 0.41 q-1.7 0 -2.95 -0.76 t-1.91 -2.07 t-0.66 -2.91 t0.66 -2.91 t1.91 -2.07 t2.95 -0.76 q1.14 0 2.01 0.39 t1.33 0.99 l0 -1.14 l2.96 0 l0 11 l-2.96 0 l0 -1.1 z M33.94 12.25 q-0.82 -0.87 -2.2 -0.87 q-1.4 0 -2.21 0.87 t-0.81 2.25 q0 1.34 0.83 2.22 t2.19 0.88 q1.4 0 2.21 -0.83 t0.81 -2.27 q0 -1.38 -0.82 -2.25 z M40.58 4.880000000000001 l3 0 l0 15.12 l-3 0 l0 -15.12 z M49.24 7.369999999999999 q-0.48 0.47 -1.16 0.47 q-0.7 0 -1.19 -0.47 t-0.49 -1.15 q0 -0.66 0.49 -1.13 t1.19 -0.47 q0.68 0 1.16 0.47 t0.48 1.13 q0 0.68 -0.48 1.15 z M46.580000000000005 9.02 l3 0 l0 10.98 l-3 0 l0 -10.98 z M60.88 18.9 q-0.38 0.52 -1.31 0.93 t-2.03 0.41 q-1.7 0 -2.95 -0.76 t-1.91 -2.07 t-0.66 -2.91 t0.66 -2.91 t1.91 -2.07 t2.95 -0.76 q1.14 0 2.01 0.39 t1.33 0.99 l0 -5.26 l2.96 0 l0 15.12 l-2.96 0 l0 -1.1 z M60.18000000000001 12.25 q-0.82 -0.87 -2.2 -0.87 q-1.4 0 -2.21 0.87 t-0.81 2.25 q0 1.34 0.83 2.22 t2.19 0.88 q1.4 0 2.21 -0.83 t0.81 -2.27 q0 -1.38 -0.82 -2.25 z M69.61 19.74 q-1.37 -0.54 -2.35 -1.83 t-0.98 -3.37 t0.99 -3.36 t2.37 -1.82 t2.62 -0.54 q1.44 0 2.74 0.64 t2.13 1.88 t0.87 2.94 q0 0.52 -0.02 0.9 t-0.04 0.48 l-8.68 0 q0.24 1.16 1.2 1.58 t1.8 0.42 q1.08 0 1.72 -0.39 t1.1 -0.89 l2.32 1.34 q-1.88 2.56 -5.14 2.56 q-1.28 0 -2.65 -0.54 z M70.22 12.05 q-0.78 0.61 -0.88 1.49 l5.5 0 q-0.06 -0.52 -0.4 -1 t-0.91 -0.79 t-1.29 -0.31 q-1.24 0 -2.02 0.61 z M79.80000000000001 18.54 l1.56 -2.08 q0.72 0.5 1.68 0.84 t1.88 0.34 q0.68 0 1.13 -0.28 t0.45 -0.7 t-0.51 -0.59 t-0.99 -0.24 t-0.62 -0.09 q-1.2 -0.2 -2.07 -0.48 t-1.58 -1 t-0.71 -1.98 q0 -2.08 1.51 -2.78 t3.03 -0.7 q1.3 0 2.4 0.38 t2.18 1.2 l-1.56 2.04 q-0.78 -0.46 -1.54 -0.74 t-1.58 -0.28 q-0.5 0 -0.97 0.22 t-0.47 0.6 q0 0.48 0.65 0.68 t1.43 0.3 q1.4 0.24 2.24 0.5 t1.49 0.97 t0.65 2.01 q0 1.72 -1.18 2.65 t-3.34 0.93 q-3 0 -5.16 -1.72 z M94.66 7.369999999999999 q-0.48 0.47 -1.16 0.47 q-0.7 0 -1.19 -0.47 t-0.49 -1.15 q0 -0.66 0.49 -1.13 t1.19 -0.47 q0.68 0 1.16 0.47 t0.48 1.13 q0 0.68 -0.48 1.15 z M92 9.02 l3 0 l0 10.98 l-3 0 l0 -10.98 z M107.78999999999999 22.77 q-1.47 1.37 -4.09 1.37 q-3.14 0 -5.26 -1.66 l1.46 -2.12 q0.68 0.54 1.61 0.88 t1.97 0.34 q2.82 0 2.82 -2.56 l0 -0.18 q-1.2 0.98 -3.08 0.98 q-1.74 0 -3.06 -0.73 t-2.02 -1.99 t-0.7 -2.78 q0 -1.54 0.7 -2.79 t2.01 -1.99 t3.07 -0.74 q1.88 0 3.08 0.98 l0 -0.78 l2.96 0 l0 10.02 q0 2.38 -1.47 3.75 z M104.92999999999999 16.91 q0.69 -0.39 1.09 -1.08 t0.4 -1.51 q0 -0.84 -0.4 -1.52 t-1.09 -1.07 t-1.53 -0.39 q-1.36 0 -2.19 0.85 t-0.83 2.13 q0 1.32 0.81 2.15 t2.21 0.83 q0.84 0 1.53 -0.39 z M121.43 10.02 q1.03 1.22 1.03 3.48 l0 6.5 l-3.06 0 l0 -6.5 q0 -2.22 -2.12 -2.22 q-0.82 0 -1.48 0.65 t-0.62 2.25 l0 5.82 l-2.98 0 l0 -11 l2.98 0 l0 0.98 q0.54 -0.54 1.36 -0.86 t1.58 -0.32 q2.28 0 3.31 1.22 z M127.86 19.51 q-1.38 -0.77 -2.19 -2.09 t-0.81 -2.88 t0.81 -2.87 t2.18 -2.08 t2.99 -0.77 q1.74 0 3.15 0.83 t2.25 2.37 l-2.7 1.06 q-0.48 -0.82 -1.18 -1.23 t-1.52 -0.41 q-1.3 0 -2.15 0.88 t-0.85 2.22 t0.86 2.22 t2.16 0.88 q1.8 0 2.78 -1.6 l2.54 1 q-1.58 3.24 -5.32 3.24 q-1.62 0 -3 -0.77 z M140.63000000000002 19.49 q-1.37 -0.77 -2.17 -2.09 t-0.8 -2.88 q0 -1.54 0.8 -2.86 t2.17 -2.09 t2.99 -0.77 t3 0.77 t2.19 2.09 t0.81 2.86 q0 1.56 -0.81 2.88 t-2.19 2.09 t-3 0.77 t-2.99 -0.77 z M142.10000000000002 11.83 q-0.7 0.41 -1.1 1.12 t-0.4 1.57 q0 0.9 0.39 1.61 t1.08 1.12 t1.55 0.41 q0.84 0 1.53 -0.41 t1.09 -1.13 t0.4 -1.6 q0 -0.86 -0.4 -1.57 t-1.09 -1.12 t-1.53 -0.41 q-0.82 0 -1.52 0.41 z"></path></g><g id="SvgjsG2816" featureKey="aAUSXE-0" transform="matrix(0.5327893698560645,0,0,0.5327893698560645,84.84016384958298,185.03933381309332)" fill="#ffffff"><path d="M16.14 4.02 l-6.52 9.44 l0 6.56 l-3.14 0 l0 -6.6 l-6.18 -9.4 l3.6 0 l4.16 6.72 l4.34 -6.72 l3.74 0 z M43.416 12 q0 1.72 -0.67 3.24 t-1.83 2.64 t-2.7 1.77 t-3.28 0.65 t-3.29 -0.65 t-2.71 -1.77 t-1.83 -2.63 t-0.67 -3.25 t0.67 -3.26 t1.83 -2.64 t2.71 -1.76 t3.29 -0.64 t3.28 0.64 t2.7 1.77 t1.83 2.64 t0.67 3.25 z M40.296 12 q0 -1.1 -0.42 -2.07 t-1.15 -1.7 t-1.71 -1.16 t-2.08 -0.43 q-1.12 0 -2.1 0.43 t-1.71 1.16 t-1.15 1.7 t-0.42 2.07 q0 1.08 0.42 2.06 t1.15 1.71 t1.71 1.16 t2.1 0.43 q1.1 0 2.08 -0.43 t1.71 -1.16 t1.15 -1.71 t0.42 -2.06 z M71.212 4 l0 8.68 q0 1.6 -0.48 2.98 t-1.39 2.41 t-2.22 1.62 t-2.99 0.59 q-1.64 0 -2.96 -0.58 t-2.25 -1.59 t-1.43 -2.38 t-0.5 -2.95 l0 -8.78 l3.1 0 l0 8.8 q0 0.92 0.26 1.73 t0.76 1.41 t1.25 0.95 t1.71 0.35 q1.02 0 1.77 -0.33 t1.24 -0.92 t0.74 -1.39 t0.25 -1.76 l0 -8.84 l3.14 0 z M97.228 20 l-3.42 0 l-1.14 -3.64 q-0.18 -0.6 -0.45 -1.1 t-0.65 -0.86 t-0.91 -0.56 t-1.25 -0.2 l-1.16 0 l0 6.36 l-3.06 0 l0 -15.98 l6.32 -0.02 q1.02 0 1.9 0.35 t1.52 0.97 t1 1.46 t0.36 1.82 q0 0.7 -0.22 1.36 t-0.62 1.22 t-0.95 0.99 t-1.21 0.65 q0.76 0.28 1.24 0.81 t0.76 1.27 q0.14 0.34 0.26 0.68 t0.25 0.71 t0.28 0.8 t0.33 0.95 q0.22 0.66 0.41 1.13 t0.41 0.83 z M93.16799999999999 8.82 q0 -0.56 -0.21 -1.02 t-0.57 -0.8 t-0.85 -0.53 t-1.05 -0.19 l-2.24 0 l0 4.98 l2.24 0 q0.56 0 1.05 -0.17 t0.85 -0.49 t0.57 -0.77 t0.21 -1.01 z M138.85999999999999 15.8 q0 0.9 -0.39 1.71 t-1.09 1.43 t-1.66 0.99 t-2.12 0.37 q-1.04 0 -1.87 -0.12 t-1.56 -0.38 t-1.4 -0.67 t-1.39 -0.99 l2.2 -2.22 q0.96 0.8 1.88 1.13 t2 0.33 q0.44 0 0.83 -0.13 t0.68 -0.35 t0.46 -0.52 t0.17 -0.66 q0 -0.38 -0.14 -0.68 t-0.5 -0.58 t-1 -0.57 t-1.64 -0.65 q-0.88 -0.32 -1.69 -0.73 t-1.42 -0.99 t-0.98 -1.36 t-0.37 -1.84 q0 -1.02 0.41 -1.88 t1.12 -1.47 t1.66 -0.95 t2.05 -0.34 q1.84 0 3.1 0.48 t2.24 1.4 l-2.16 2.18 q-0.6 -0.58 -1.34 -0.89 t-1.74 -0.31 q-0.46 0 -0.85 0.14 t-0.67 0.37 t-0.45 0.54 t-0.17 0.65 q0 0.38 0.16 0.69 t0.54 0.6 t1.01 0.58 t1.57 0.63 q1.2 0.42 2.06 0.92 t1.4 1.1 t0.8 1.35 t0.26 1.69 z M163.63600000000002 9.38 q0 1.14 -0.43 2.13 t-1.17 1.72 t-1.74 1.14 t-2.12 0.41 l-2.64 0 l0 5.22 l-3.1 0 l0 -15.98 l5.74 0 q1.12 0 2.12 0.41 t1.74 1.13 t1.17 1.7 t0.43 2.12 z M160.556 9.34 q0 -0.62 -0.23 -1.16 t-0.63 -0.94 t-0.94 -0.64 t-1.16 -0.24 l-2.06 0 l0 6.04 l2.06 0 q0.62 0 1.16 -0.25 t0.94 -0.67 t0.63 -0.97 t0.23 -1.17 z M190.692 20 l-3.4 0 l-1.48 -3.2 l-7.76 0 l-1.5 3.2 l-3.4 0 l7.56 -16 l2.42 0 z M184.59199999999998 14.219999999999999 l-2.66 -5.76 l-2.7 5.76 l5.36 0 z M217.00799999999998 17.12 q-1.2 1.46 -2.91 2.32 t-3.77 0.86 q-1.78 0 -3.34 -0.65 t-2.72 -1.77 t-1.83 -2.63 t-0.67 -3.25 t0.67 -3.25 t1.83 -2.64 t2.72 -1.77 t3.34 -0.64 q2.06 0 3.77 0.86 t2.85 2.24 l-2.14 2.2 q-0.74 -1.06 -1.91 -1.71 t-2.57 -0.65 q-1.12 0 -2.11 0.43 t-1.73 1.16 t-1.17 1.7 t-0.43 2.07 q0 1.08 0.43 2.05 t1.17 1.7 t1.73 1.16 t2.11 0.43 q1.48 0 2.62 -0.67 t1.9 -1.77 z M240.54399999999995 20 l-10.56 0 l0 -15.98 l10.56 0 l0 2.56 l-7.52 0 l0 3.82 l7.42 0 l0 2.5 l-7.42 0 l0 4.4 l7.52 0 l0 2.7 z M256.9 20 q0 0.48 -0.14 0.91 t-0.41 0.76 t-0.68 0.52 t-0.95 0.19 q-0.2 0 -0.39 -0.04 t-0.35 -0.08 l0 -0.22 q0.58 -0.1 0.94 -0.54 t0.36 -1.02 q0 -0.1 -0.02 -0.24 t-0.06 -0.24 l-1.28 0 l0 -2.98 l2.98 0 l0 2.98 z M300.39199999999994 20 l-3.42 0 l-1.14 -3.64 q-0.18 -0.6 -0.45 -1.1 t-0.65 -0.86 t-0.91 -0.56 t-1.25 -0.2 l-1.16 0 l0 6.36 l-3.06 0 l0 -15.98 l6.32 -0.02 q1.02 0 1.9 0.35 t1.52 0.97 t1 1.46 t0.36 1.82 q0 0.7 -0.22 1.36 t-0.62 1.22 t-0.95 0.99 t-1.21 0.65 q0.76 0.28 1.24 0.81 t0.76 1.27 q0.14 0.34 0.26 0.68 t0.25 0.71 t0.28 0.8 t0.33 0.95 q0.22 0.66 0.41 1.13 t0.41 0.83 z M296.33199999999994 8.82 q0 -0.56 -0.21 -1.02 t-0.57 -0.8 t-0.85 -0.53 t-1.05 -0.19 l-2.24 0 l0 4.98 l2.24 0 q0.56 0 1.05 -0.17 t0.85 -0.49 t0.57 -0.77 t0.21 -1.01 z M324.22799999999995 20 l-10.56 0 l0 -15.98 l10.56 0 l0 2.56 l-7.52 0 l0 3.82 l7.42 0 l0 2.5 l-7.42 0 l0 4.4 l7.52 0 l0 2.7 z M341.1039999999999 20 l-3.1 0 l0 -15.98 l3.1 0 l0 15.98 z M371.43999999999994 20 l-3.04 0 l0 -10.68 l-5.04 8.5 l-4.84 -8.58 l0 10.76 l-3.04 0 l0 -16 l3.5 0 l4.44 7.94 l4.64 -7.94 l3.38 0 l0 16 z M401.95599999999996 20 l-3.4 0 l-1.48 -3.2 l-7.76 0 l-1.5 3.2 l-3.4 0 l7.56 -16 l2.42 0 z M395.85599999999994 14.219999999999999 l-2.66 -5.76 l-2.7 5.76 l5.36 0 z M428.3519999999999 17.06 q-0.68 0.84 -1.48 1.45 t-1.67 1.01 t-1.78 0.59 t-1.81 0.19 q-1.78 0 -3.34 -0.64 t-2.72 -1.76 t-1.84 -2.64 t-0.68 -3.28 q0 -1.72 0.67 -3.23 t1.84 -2.63 t2.73 -1.77 t3.34 -0.65 q2.06 0 3.75 0.84 t2.87 2.24 l-2.1 2.14 q-0.9 -1.22 -2.02 -1.75 t-2.5 -0.53 q-1.14 0 -2.14 0.42 t-1.75 1.15 t-1.18 1.7 t-0.43 2.07 q0 1.12 0.43 2.09 t1.18 1.71 t1.75 1.16 t2.14 0.42 q1.08 0 2.04 -0.4 t1.72 -1.06 l0 -1.54 l-3.28 0 l0 -2.64 l6.26 0 l0 5.34 z M445.2279999999999 20 l-3.1 0 l0 -15.98 l3.1 0 l0 15.98 z M472.9039999999999 20 l-3.04 0 l-7.22 -11.22 l0 11.22 l-3.04 0 l0 -16 l3.48 0 l6.78 10.44 l0 -10.44 l3.04 0 l0 16 z M497.8399999999999 20 l-10.56 0 l0 -15.98 l10.56 0 l0 2.56 l-7.52 0 l0 3.82 l7.42 0 l0 2.5 l-7.42 0 l0 4.4 l7.52 0 l0 2.7 z M525.8359999999999 12 q0 1.66 -0.56 3.11 t-1.56 2.54 t-2.39 1.72 t-3.03 0.63 l-6.68 0 l0 -16 l6.68 0 q1.64 0 3.03 0.64 t2.39 1.72 t1.56 2.54 t0.56 3.1 z M522.6959999999999 11.92 q0.02 -1.12 -0.34 -2.12 t-1.04 -1.75 t-1.67 -1.18 t-2.23 -0.43 l-2.7 0 l0 10.92 l2.7 0 q1.22 0 2.19 -0.41 t1.65 -1.14 t1.05 -1.72 t0.39 -2.17 z"></path></g>
			</g>
		</svg>
	